<mxfile host="Electron" agent="Mozilla/5.0 (Macintosh; Intel Mac OS X 10_15_7) AppleWebKit/537.36 (KHTML, like Gecko) draw.io/24.7.17 Chrome/128.0.6613.36 Electron/32.0.1 Safari/537.36" version="24.7.17">
  <diagram name="Page-1" id="Zh9yoaW2E6Sv6TEjkUZi">
    <mxGraphModel dx="2428" dy="1143" grid="1" gridSize="10" guides="1" tooltips="1" connect="1" arrows="1" fold="1" page="1" pageScale="1" pageWidth="850" pageHeight="1100" background="#ffffff" math="0" shadow="0">
      <root>
        <mxCell id="0" />
        <mxCell id="1" parent="0" />
        <mxCell id="n26gUjxStsHpadJvNpFx-36" value="" style="rounded=0;whiteSpace=wrap;html=1;fillColor=none;dashed=1;strokeColor=#000000;fontColor=#000000;" parent="1" vertex="1">
          <mxGeometry x="-80" y="406" width="740" height="604" as="geometry" />
        </mxCell>
        <mxCell id="n26gUjxStsHpadJvNpFx-1" value="Angular UI" style="rounded=1;whiteSpace=wrap;html=1;fillColor=none;strokeWidth=2;strokeColor=#000000;fontColor=#000000;" parent="1" vertex="1">
          <mxGeometry x="-300" y="290" width="120" height="60" as="geometry" />
        </mxCell>
        <mxCell id="n26gUjxStsHpadJvNpFx-2" value="Python Proxy" style="rounded=1;whiteSpace=wrap;html=1;fillColor=none;strokeWidth=2;strokeColor=#000000;fontColor=#000000;" parent="1" vertex="1">
          <mxGeometry x="-300" y="410" width="120" height="30" as="geometry" />
        </mxCell>
        <mxCell id="n26gUjxStsHpadJvNpFx-3" value="Gradio API" style="rounded=1;whiteSpace=wrap;html=1;fillColor=none;strokeWidth=2;strokeColor=#000000;fontColor=#000000;" parent="1" vertex="1">
          <mxGeometry x="-300" y="490" width="120" height="30" as="geometry" />
        </mxCell>
        <mxCell id="n26gUjxStsHpadJvNpFx-4" value="&lt;font style=&quot;font-size: 15px;&quot;&gt;Agents&lt;/font&gt;&lt;div&gt;&lt;font style=&quot;font-size: 15px;&quot;&gt;&lt;br&gt;&lt;/font&gt;&lt;/div&gt;&lt;div&gt;&lt;font style=&quot;font-size: 15px;&quot;&gt;&lt;br&gt;&lt;/font&gt;&lt;/div&gt;&lt;div&gt;&lt;br&gt;&lt;/div&gt;" style="rounded=1;whiteSpace=wrap;html=1;fillColor=none;strokeWidth=2;strokeColor=#000000;fontColor=#000000;" parent="1" vertex="1">
          <mxGeometry x="-65" y="420" width="710" height="130" as="geometry" />
        </mxCell>
        <mxCell id="n26gUjxStsHpadJvNpFx-5" value="Video" style="rounded=1;whiteSpace=wrap;html=1;fillColor=none;strokeWidth=2;strokeColor=#000000;fontColor=#000000;" parent="1" vertex="1">
          <mxGeometry x="-45" y="490" width="120" height="30" as="geometry" />
        </mxCell>
        <mxCell id="n26gUjxStsHpadJvNpFx-7" value="Socratic" style="rounded=1;whiteSpace=wrap;html=1;fillColor=none;strokeWidth=2;strokeColor=#000000;fontColor=#000000;" parent="1" vertex="1">
          <mxGeometry x="95" y="490" width="120" height="30" as="geometry" />
        </mxCell>
        <mxCell id="n26gUjxStsHpadJvNpFx-8" value="General" style="rounded=1;whiteSpace=wrap;html=1;fillColor=none;strokeWidth=2;strokeColor=#000000;fontColor=#000000;" parent="1" vertex="1">
          <mxGeometry x="235" y="490" width="120" height="30" as="geometry" />
        </mxCell>
        <mxCell id="n26gUjxStsHpadJvNpFx-9" value="GPU" style="rounded=1;whiteSpace=wrap;html=1;fillColor=none;strokeWidth=2;strokeColor=#000000;fontColor=#000000;" parent="1" vertex="1">
          <mxGeometry x="370" y="490" width="120" height="30" as="geometry" />
        </mxCell>
        <mxCell id="n26gUjxStsHpadJvNpFx-11" value="Quiz" style="rounded=1;whiteSpace=wrap;html=1;fillColor=none;strokeWidth=2;strokeColor=#000000;fontColor=#000000;" parent="1" vertex="1">
          <mxGeometry x="505" y="490" width="120" height="30" as="geometry" />
        </mxCell>
        <mxCell id="n26gUjxStsHpadJvNpFx-13" value="Chroma&amp;nbsp;&lt;div&gt;Vector Base&lt;/div&gt;" style="shape=cylinder3;whiteSpace=wrap;html=1;boundedLbl=1;backgroundOutline=1;size=15;strokeColor=#000000;fontColor=#000000;fillColor=none;" parent="1" vertex="1">
          <mxGeometry x="245" y="890" width="90" height="110" as="geometry" />
        </mxCell>
        <mxCell id="n26gUjxStsHpadJvNpFx-14" value="Documents" style="whiteSpace=wrap;html=1;shape=mxgraph.basic.document;fillColor=none;strokeColor=#000000;fontColor=#000000;" parent="1" vertex="1">
          <mxGeometry x="-230" y="650" width="80" height="90" as="geometry" />
        </mxCell>
        <mxCell id="n26gUjxStsHpadJvNpFx-15" value="Videos" style="whiteSpace=wrap;html=1;shape=mxgraph.basic.document;fillColor=none;strokeColor=#000000;fontColor=#000000;" parent="1" vertex="1">
          <mxGeometry x="-330" y="650" width="80" height="90" as="geometry" />
        </mxCell>
        <mxCell id="n26gUjxStsHpadJvNpFx-16" value="Scraped Files&lt;div&gt;URLs&lt;/div&gt;&lt;div&gt;Github repos&lt;/div&gt;" style="whiteSpace=wrap;html=1;shape=mxgraph.basic.document;fillColor=none;strokeColor=#000000;fontColor=#000000;" parent="1" vertex="1">
          <mxGeometry x="-240" y="920" width="80" height="90" as="geometry" />
        </mxCell>
        <mxCell id="n26gUjxStsHpadJvNpFx-17" value="Huggingface embedding model" style="rounded=1;whiteSpace=wrap;html=1;fillColor=none;strokeWidth=2;strokeColor=#000000;fontColor=#000000;" parent="1" vertex="1">
          <mxGeometry x="30" y="950" width="120" height="30" as="geometry" />
        </mxCell>
        <mxCell id="n26gUjxStsHpadJvNpFx-18" value="LLM" style="rounded=1;whiteSpace=wrap;html=1;fillColor=none;strokeWidth=2;strokeColor=#000000;fontColor=#000000;" parent="1" vertex="1">
          <mxGeometry x="200" y="630" width="180" height="80" as="geometry" />
        </mxCell>
        <mxCell id="n26gUjxStsHpadJvNpFx-19" value="Metrics generator" style="rounded=1;whiteSpace=wrap;html=1;fillColor=none;strokeWidth=2;strokeColor=#000000;fontColor=#000000;" parent="1" vertex="1">
          <mxGeometry x="440" y="630" width="180" height="80" as="geometry" />
        </mxCell>
        <mxCell id="n26gUjxStsHpadJvNpFx-20" value="Sandbox environment" style="rounded=1;whiteSpace=wrap;html=1;fillColor=none;strokeWidth=2;strokeColor=#000000;fontColor=#000000;" parent="1" vertex="1">
          <mxGeometry x="440" y="765" width="180" height="80" as="geometry" />
        </mxCell>
        <mxCell id="n26gUjxStsHpadJvNpFx-21" value="Langchain Retriever" style="rounded=1;whiteSpace=wrap;html=1;fillColor=none;strokeWidth=2;strokeColor=#000000;fontColor=#000000;" parent="1" vertex="1">
          <mxGeometry x="200" y="765" width="180" height="80" as="geometry" />
        </mxCell>
        <mxCell id="n26gUjxStsHpadJvNpFx-22" value="Tokeniser" style="rounded=1;whiteSpace=wrap;html=1;fillColor=none;strokeWidth=2;strokeColor=#000000;fontColor=#000000;" parent="1" vertex="1">
          <mxGeometry x="10" y="780" width="160" height="70" as="geometry" />
        </mxCell>
        <mxCell id="n26gUjxStsHpadJvNpFx-23" value="" style="endArrow=classic;startArrow=classic;html=1;rounded=0;strokeWidth=2;entryX=0.5;entryY=1;entryDx=0;entryDy=0;exitX=0.5;exitY=0;exitDx=0;exitDy=0;strokeColor=#000000;fontColor=#000000;" parent="1" source="n26gUjxStsHpadJvNpFx-2" target="n26gUjxStsHpadJvNpFx-1" edge="1">
          <mxGeometry width="50" height="50" relative="1" as="geometry">
            <mxPoint x="220" y="630" as="sourcePoint" />
            <mxPoint x="270" y="580" as="targetPoint" />
          </mxGeometry>
        </mxCell>
        <mxCell id="n26gUjxStsHpadJvNpFx-24" value="" style="endArrow=classic;startArrow=classic;html=1;rounded=0;strokeWidth=2;entryX=0.5;entryY=1;entryDx=0;entryDy=0;strokeColor=#000000;fontColor=#000000;" parent="1" source="n26gUjxStsHpadJvNpFx-3" target="n26gUjxStsHpadJvNpFx-2" edge="1">
          <mxGeometry width="50" height="50" relative="1" as="geometry">
            <mxPoint x="220" y="630" as="sourcePoint" />
            <mxPoint x="270" y="580" as="targetPoint" />
          </mxGeometry>
        </mxCell>
        <mxCell id="n26gUjxStsHpadJvNpFx-25" value="" style="endArrow=classic;html=1;rounded=0;strokeWidth=2;exitX=0.5;exitY=1;exitDx=0;exitDy=0;entryX=0.5;entryY=0;entryDx=0;entryDy=0;entryPerimeter=0;strokeColor=#000000;fontColor=#000000;" parent="1" source="n26gUjxStsHpadJvNpFx-3" target="n26gUjxStsHpadJvNpFx-15" edge="1">
          <mxGeometry width="50" height="50" relative="1" as="geometry">
            <mxPoint x="220" y="630" as="sourcePoint" />
            <mxPoint x="270" y="580" as="targetPoint" />
          </mxGeometry>
        </mxCell>
        <mxCell id="n26gUjxStsHpadJvNpFx-26" value="" style="endArrow=classic;html=1;rounded=0;strokeWidth=2;exitX=0.5;exitY=1;exitDx=0;exitDy=0;strokeColor=#000000;fontColor=#000000;" parent="1" source="n26gUjxStsHpadJvNpFx-3" target="n26gUjxStsHpadJvNpFx-14" edge="1">
          <mxGeometry width="50" height="50" relative="1" as="geometry">
            <mxPoint x="-240" y="650" as="sourcePoint" />
            <mxPoint x="-330" y="780" as="targetPoint" />
          </mxGeometry>
        </mxCell>
        <mxCell id="n26gUjxStsHpadJvNpFx-27" value="" style="endArrow=classic;html=1;rounded=0;exitX=0.5;exitY=1;exitDx=0;exitDy=0;exitPerimeter=0;entryX=0;entryY=0.5;entryDx=0;entryDy=0;strokeWidth=2;strokeColor=#000000;fontColor=#000000;" parent="1" source="n26gUjxStsHpadJvNpFx-14" target="n26gUjxStsHpadJvNpFx-22" edge="1">
          <mxGeometry width="50" height="50" relative="1" as="geometry">
            <mxPoint x="220" y="630" as="sourcePoint" />
            <mxPoint x="270" y="580" as="targetPoint" />
            <Array as="points">
              <mxPoint x="-190" y="815" />
            </Array>
          </mxGeometry>
        </mxCell>
        <mxCell id="n26gUjxStsHpadJvNpFx-28" value="" style="endArrow=classic;html=1;rounded=0;entryX=0;entryY=0.5;entryDx=0;entryDy=0;strokeWidth=2;strokeColor=#000000;fontColor=#000000;" parent="1" target="n26gUjxStsHpadJvNpFx-22" edge="1">
          <mxGeometry width="50" height="50" relative="1" as="geometry">
            <mxPoint x="-290" y="740" as="sourcePoint" />
            <mxPoint x="-140" y="815" as="targetPoint" />
            <Array as="points">
              <mxPoint x="-290" y="815" />
            </Array>
          </mxGeometry>
        </mxCell>
        <mxCell id="n26gUjxStsHpadJvNpFx-29" value="" style="endArrow=classic;startArrow=classic;html=1;rounded=0;strokeWidth=2;entryX=0.5;entryY=1;entryDx=0;entryDy=0;exitX=0.5;exitY=0;exitDx=0;exitDy=0;strokeColor=#000000;fontColor=#000000;" parent="1" source="n26gUjxStsHpadJvNpFx-20" target="n26gUjxStsHpadJvNpFx-19" edge="1">
          <mxGeometry width="50" height="50" relative="1" as="geometry">
            <mxPoint x="220" y="690" as="sourcePoint" />
            <mxPoint x="270" y="640" as="targetPoint" />
          </mxGeometry>
        </mxCell>
        <mxCell id="n26gUjxStsHpadJvNpFx-30" value="" style="endArrow=classic;startArrow=classic;html=1;rounded=0;strokeWidth=2;entryX=0.5;entryY=1;entryDx=0;entryDy=0;exitX=0.5;exitY=0;exitDx=0;exitDy=0;strokeColor=#000000;fontColor=#000000;" parent="1" source="n26gUjxStsHpadJvNpFx-19" target="n26gUjxStsHpadJvNpFx-9" edge="1">
          <mxGeometry width="50" height="50" relative="1" as="geometry">
            <mxPoint x="220" y="690" as="sourcePoint" />
            <mxPoint x="270" y="640" as="targetPoint" />
          </mxGeometry>
        </mxCell>
        <mxCell id="n26gUjxStsHpadJvNpFx-31" value="" style="endArrow=classic;startArrow=classic;html=1;rounded=0;strokeWidth=2;entryX=0.5;entryY=1;entryDx=0;entryDy=0;exitX=0.5;exitY=0;exitDx=0;exitDy=0;strokeColor=#000000;fontColor=#000000;" parent="1" source="n26gUjxStsHpadJvNpFx-18" target="n26gUjxStsHpadJvNpFx-4" edge="1">
          <mxGeometry width="50" height="50" relative="1" as="geometry">
            <mxPoint x="430" y="680" as="sourcePoint" />
            <mxPoint x="330" y="570" as="targetPoint" />
          </mxGeometry>
        </mxCell>
        <mxCell id="n26gUjxStsHpadJvNpFx-32" value="" style="endArrow=classic;startArrow=classic;html=1;rounded=0;strokeWidth=2;exitX=0.5;exitY=0;exitDx=0;exitDy=0;entryX=0.5;entryY=1;entryDx=0;entryDy=0;strokeColor=#000000;fontColor=#000000;" parent="1" source="n26gUjxStsHpadJvNpFx-21" target="n26gUjxStsHpadJvNpFx-18" edge="1">
          <mxGeometry width="50" height="50" relative="1" as="geometry">
            <mxPoint x="220" y="690" as="sourcePoint" />
            <mxPoint x="270" y="640" as="targetPoint" />
          </mxGeometry>
        </mxCell>
        <mxCell id="n26gUjxStsHpadJvNpFx-33" value="" style="endArrow=classic;html=1;rounded=0;strokeWidth=2;exitX=1;exitY=0.5;exitDx=0;exitDy=0;exitPerimeter=0;entryX=0;entryY=0.5;entryDx=0;entryDy=0;strokeColor=#000000;fontColor=#000000;" parent="1" source="n26gUjxStsHpadJvNpFx-16" target="n26gUjxStsHpadJvNpFx-17" edge="1">
          <mxGeometry width="50" height="50" relative="1" as="geometry">
            <mxPoint x="220" y="690" as="sourcePoint" />
            <mxPoint x="270" y="640" as="targetPoint" />
          </mxGeometry>
        </mxCell>
        <mxCell id="n26gUjxStsHpadJvNpFx-34" value="" style="endArrow=classic;html=1;rounded=0;strokeWidth=2;exitX=1;exitY=0.5;exitDx=0;exitDy=0;entryX=0;entryY=0;entryDx=0;entryDy=75;entryPerimeter=0;strokeColor=#000000;fontColor=#000000;" parent="1" source="n26gUjxStsHpadJvNpFx-17" target="n26gUjxStsHpadJvNpFx-13" edge="1">
          <mxGeometry width="50" height="50" relative="1" as="geometry">
            <mxPoint x="220" y="690" as="sourcePoint" />
            <mxPoint x="270" y="640" as="targetPoint" />
          </mxGeometry>
        </mxCell>
        <mxCell id="n26gUjxStsHpadJvNpFx-35" value="" style="endArrow=classic;html=1;rounded=0;strokeWidth=2;exitX=0.5;exitY=1;exitDx=0;exitDy=0;entryX=0;entryY=0;entryDx=0;entryDy=35;entryPerimeter=0;strokeColor=#000000;fontColor=#000000;" parent="1" source="n26gUjxStsHpadJvNpFx-22" target="n26gUjxStsHpadJvNpFx-13" edge="1">
          <mxGeometry width="50" height="50" relative="1" as="geometry">
            <mxPoint x="220" y="690" as="sourcePoint" />
            <mxPoint x="270" y="640" as="targetPoint" />
            <Array as="points">
              <mxPoint x="90" y="925" />
            </Array>
          </mxGeometry>
        </mxCell>
        <mxCell id="n26gUjxStsHpadJvNpFx-37" value="SOL" style="text;html=1;align=center;verticalAlign=middle;whiteSpace=wrap;rounded=0;strokeColor=none;fontColor=#000000;" parent="1" vertex="1">
          <mxGeometry x="260" y="380" width="60" height="30" as="geometry" />
        </mxCell>
        <mxCell id="n26gUjxStsHpadJvNpFx-38" value="" style="sketch=0;outlineConnect=0;fontColor=#000000;gradientColor=none;fillColor=light-dark(#232F3D,#FFFFFF);strokeColor=#000000;dashed=0;verticalLabelPosition=bottom;verticalAlign=top;align=center;html=1;fontSize=12;fontStyle=0;aspect=fixed;pointerEvents=1;shape=mxgraph.aws4.user;" parent="1" vertex="1">
          <mxGeometry x="-400" y="281" width="78" height="78" as="geometry" />
        </mxCell>
        <mxCell id="IvKL0xLCDw-64-Beujpt-1" value="" style="endArrow=classic;startArrow=classic;html=1;rounded=0;strokeWidth=2;exitX=0.5;exitY=1;exitDx=0;exitDy=0;entryX=0.5;entryY=0;entryDx=0;entryDy=0;strokeColor=#000000;fontColor=#000000;entryPerimeter=0;" edge="1" parent="1" source="n26gUjxStsHpadJvNpFx-21" target="n26gUjxStsHpadJvNpFx-13">
          <mxGeometry width="50" height="50" relative="1" as="geometry">
            <mxPoint x="300" y="775" as="sourcePoint" />
            <mxPoint x="300" y="720" as="targetPoint" />
          </mxGeometry>
        </mxCell>
      </root>
    </mxGraphModel>
  </diagram>
</mxfile>
